HIERARCHY
ROOT hips
{
  OFFSET 0 10.6860622 2.3727825e-15
  CHANNELS 6 Xposition Yposition Zposition Yrotation Xrotation Zrotation
  JOINT leftUpperLeg
  {
    OFFSET 0.6642549969 -0.9402397400000004 0
    CHANNELS 3 Yrotation Xrotation Zrotation
    JOINT leftLowerLeg
    {
      OFFSET 0 -3.997221335632195 0
      CHANNELS 3 Yrotation Xrotation Zrotation
      JOINT leftFoot
      {
        OFFSET -0.13777839790000004 -4.6145792000000005 -0.22186036399999998
        CHANNELS 3 Yrotation Xrotation Zrotation
        JOINT leftToes
        {
          OFFSET -0.03777410834999995 -0.9130806927000008 0.85230013
          CHANNELS 3 Yrotation Xrotation Zrotation
          End Site
          {
            OFFSET -0.03777410834999995 -0.9130806927000008 0.85230013
          }
        }
      }
    }
  }
  JOINT rightUpperLeg
  {
    OFFSET -0.6642778626 -0.9402397400000004 0
    CHANNELS 3 Yrotation Xrotation Zrotation
    JOINT rightLowerLeg
    {
      OFFSET 0 -3.997221452859387 0
      CHANNELS 3 Yrotation Xrotation Zrotation
      JOINT rightFoot
      {
        OFFSET 0.1377926176 -4.6145792000000005 -0.22185782299999995
        CHANNELS 3 Yrotation Xrotation Zrotation
        JOINT rightToes
        {
          OFFSET 0.037780746850000047 -0.9130806927000008 0.85230167
          CHANNELS 3 Yrotation Xrotation Zrotation
          End Site
          {
            OFFSET 0.037780746850000047 -0.9130806927000008 0.85230167
          }
        }
      }
    }
  }
  JOINT spine
  {
    OFFSET 0 0.13988381660000015 0
    CHANNELS 3 Yrotation Xrotation Zrotation
    JOINT chest
    {
      OFFSET 0 0.6191039003973773 0
      CHANNELS 3 Yrotation Xrotation Zrotation
      JOINT upperChest
      {
        OFFSET 0 0.9855186130586943 0
        CHANNELS 3 Yrotation Xrotation Zrotation
        JOINT leftShoulder
        {
          OFFSET 0.1807663869 1.5087829790000005 0
          CHANNELS 3 Yrotation Xrotation Zrotation
          JOINT leftUpperArm
          {
            OFFSET 0.5985063006419806 0 0
            CHANNELS 3 Yrotation Xrotation Zrotation
            JOINT leftLowerArm
            {
              OFFSET 2.2993332369501065 0 0
              CHANNELS 3 Yrotation Xrotation Zrotation
              JOINT leftHand
              {
                OFFSET 2.395047042602395 0 0
                CHANNELS 3 Yrotation Xrotation Zrotation
                JOINT leftIndexProximal
                {
                  OFFSET 0.5766295810000004 0.04556643899499946 0.17265095988184
                  CHANNELS 3 Yrotation Xrotation Zrotation
                  JOINT leftIndexIntermediate
                  {
                    OFFSET 0.2957229000000008 -0.019352197700001517 -0.007932640616999987
                    CHANNELS 3 Yrotation Xrotation Zrotation
                    JOINT leftIndexDistal
                    {
                      OFFSET 0.19008243099999922 -0.012484908149998475 -0.002786250786000012
                      CHANNELS 3 Yrotation Xrotation Zrotation
                      End Site
                      {
                        OFFSET 0.19008243099999922 -0.012484908149998475 -0.002786250786000012
                      }
                    }
                  }
                }
                JOINT leftMiddleProximal
                {
                  OFFSET 0.5834975091000001 0.0524350405149987 0.02204081888183999
                  CHANNELS 3 Yrotation Xrotation Zrotation
                  JOINT leftMiddleIntermediate
                  {
                    OFFSET 0.33880573540000003 -0.019871473270000717 -0.00000971183179999946
                    CHANNELS 3 Yrotation Xrotation Zrotation
                    JOINT leftMiddleDistal
                    {
                      OFFSET 0.20676022730000088 -0.012221336379999448 0.0001471936708000235
                      CHANNELS 3 Yrotation Xrotation Zrotation
                      End Site
                      {
                        OFFSET 0.20676022730000088 -0.012221336379999448 0.0001471936708000235
                      }
                    }
                  }
                }
                JOINT leftLittleProximal
                {
                  OFFSET 0.5344154683999995 -0.012880921405001189 -0.24414037221816004
                  CHANNELS 3 Yrotation Xrotation Zrotation
                  JOINT leftLittleIntermediate
                  {
                    OFFSET 0.21758961730000093 -0.011650919939999227 0.011893592810000034
                    CHANNELS 3 Yrotation Xrotation Zrotation
                    JOINT leftLittleDistal
                    {
                      OFFSET 0.1475273964999999 -0.008152365682999818 0.006001092492999946
                      CHANNELS 3 Yrotation Xrotation Zrotation
                      End Site
                      {
                        OFFSET 0.1475273964999999 -0.008152365682999818 0.006001092492999946
                      }
                    }
                  }
                }
                JOINT leftRingProximal
                {
                  OFFSET 0.5799399463000003 0.026911854694997794 -0.12150566991816003
                  CHANNELS 3 Yrotation Xrotation Zrotation
                  JOINT leftRingIntermediate
                  {
                    OFFSET 0.26167887460000006 -0.013480186499999602 0.010996293000000053
                    CHANNELS 3 Yrotation Xrotation Zrotation
                    JOINT leftRingDistal
                    {
                      OFFSET 0.17667108799999987 -0.008990287899999228 0.0055541023999999065
                      CHANNELS 3 Yrotation Xrotation Zrotation
                      End Site
                      {
                        OFFSET 0.17667108799999987 -0.008990287899999228 0.0055541023999999065
                      }
                    }
                  }
                }
                JOINT leftThumbProximal
                {
                  OFFSET 0.11018806699999972 -0.09448718900500053 0.17047963138184
                  CHANNELS 3 Yrotation Xrotation Zrotation
                  JOINT leftThumbIntermediate
                  {
                    OFFSET 0.31062601459999983 -0.08126270900000132 0.15443142000000007
                    CHANNELS 3 Yrotation Xrotation Zrotation
                    JOINT leftThumbDistal
                    {
                      OFFSET 0.21627175790000086 -0.08833193599999878 0.018771167799999988
                      CHANNELS 3 Yrotation Xrotation Zrotation
                      End Site
                      {
                        OFFSET 0.21627175790000086 -0.08833193599999878 0.018771167799999988
                      }
                    }
                  }
                }
              }
            }
          }
        }
        JOINT neck
        {
          OFFSET 0 1.5463305265074576 0
          CHANNELS 3 Yrotation Xrotation Zrotation
          JOINT head
          {
            OFFSET 0 0.8456443600000344 0
            CHANNELS 3 Yrotation Xrotation Zrotation
            JOINT leftEye
            {
              OFFSET 0.30408573140000006 0.5104519199999995 0.1276382305
              CHANNELS 3 Yrotation Xrotation Zrotation
              End Site
              {
                OFFSET 0.30408573140000006 0.5104519199999995 0.1276382305
              }
            }
            JOINT rightEye
            {
              OFFSET -0.30409491089999996 0.5104519199999995 0.1276379445
              CHANNELS 3 Yrotation Xrotation Zrotation
              End Site
              {
                OFFSET -0.30409491089999996 0.5104519199999995 0.1276379445
              }
            }
            JOINT jaw
            {
              OFFSET -3.155239131000001e-7 -0.11984121820000082 0.60178107
              CHANNELS 3 Yrotation Xrotation Zrotation
              End Site
              {
                OFFSET -3.155239131000001e-7 -0.11984121820000082 0.60178107
              }
            }
          }
        }
        JOINT rightShoulder
        {
          OFFSET -0.1807303465 1.5087829790000005 0
          CHANNELS 3 Yrotation Xrotation Zrotation
          JOINT rightUpperArm
          {
            OFFSET -0.5985063796536958 0 0
            CHANNELS 3 Yrotation Xrotation Zrotation
            JOINT rightLowerArm
            {
              OFFSET -2.2993322059002854 0 0
              CHANNELS 3 Yrotation Xrotation Zrotation
              JOINT rightHand
              {
                OFFSET -2.395045314457259 0 0
                CHANNELS 3 Yrotation Xrotation Zrotation
                JOINT rightIndexProximal
                {
                  OFFSET -0.5764487688300002 0.0441371204405987 0.17361932004999997
                  CHANNELS 3 Yrotation Xrotation Zrotation
                  JOINT rightIndexIntermediate
                  {
                    OFFSET -0.29573011380000047 -0.01934826376999843 -0.007698921482999974
                    CHANNELS 3 Yrotation Xrotation Zrotation
                    JOINT rightIndexDistal
                    {
                      OFFSET -0.19008373999999884 -0.012503266380000655 -0.0026365778999999897
                      CHANNELS 3 Yrotation Xrotation Zrotation
                      End Site
                      {
                        OFFSET -0.19008373999999884 -0.012503266380000655 -0.0026365778999999897
                      }
                    }
                  }
                }
                JOINT rightMiddleProximal
                {
                  OFFSET -0.5834852037300005 0.05211639405060153 0.02307162440000001
                  CHANNELS 3 Yrotation Xrotation Zrotation
                  JOINT rightMiddleIntermediate
                  {
                    OFFSET -0.33880114510000003 -0.019952774050000954 0.0002455003561999819
                    CHANNELS 3 Yrotation Xrotation Zrotation
                    JOINT rightMiddleDistal
                    {
                      OFFSET -0.20675694929999955 -0.012273788999999091 0.00030209124000002766
                      CHANNELS 3 Yrotation Xrotation Zrotation
                      End Site
                      {
                        OFFSET -0.20675694929999955 -0.012273788999999091 0.00030209124000002766
                      }
                    }
                  }
                }
                JOINT rightLittleProximal
                {
                  OFFSET -0.5346811737299992 -0.011214256288399227 -0.24363941305000003
                  CHANNELS 3 Yrotation Xrotation Zrotation
                  JOINT rightLittleIntermediate
                  {
                    OFFSET -0.21757715980000092 -0.011771559690000988 0.01201554387
                    CHANNELS 3 Yrotation Xrotation Zrotation
                    JOINT rightLittleDistal
                    {
                      OFFSET -0.1475201849000004 -0.00822055339600003 0.006082065407000015
                      CHANNELS 3 Yrotation Xrotation Zrotation
                      End Site
                      {
                        OFFSET -0.1475201849000004 -0.00822055339600003 0.006082065407000015
                      }
                    }
                  }
                }
                JOINT rightRingProximal
                {
                  OFFSET -0.5800810755299999 0.027657985680600072 -0.12066365025000003
                  CHANNELS 3 Yrotation Xrotation Zrotation
                  JOINT rightRingIntermediate
                  {
                    OFFSET -0.26166445029999974 -0.013623118409999302 0.011164098990000045
                    CHANNELS 3 Yrotation Xrotation Zrotation
                    JOINT rightRingDistal
                    {
                      OFFSET -0.17666387530000027 -0.009072900100000503 0.005668185599999959
                      CHANNELS 3 Yrotation Xrotation Zrotation
                      End Site
                      {
                        OFFSET -0.17666387530000027 -0.009072900100000503 0.005668185599999959
                      }
                    }
                  }
                }
                JOINT rightThumbProximal
                {
                  OFFSET -0.10997596379000074 -0.09577489355940072 0.16989765924999997
                  CHANNELS 3 Yrotation Xrotation Zrotation
                  JOINT rightThumbIntermediate
                  {
                    OFFSET -0.31036620999999986 -0.08229339117999834 0.15440884469999996
                    CHANNELS 3 Yrotation Xrotation Zrotation
                    JOINT rightThumbDistal
                    {
                      OFFSET -0.21631306399999906 -0.08825326400000111 0.018656797720000014
                      CHANNELS 3 Yrotation Xrotation Zrotation
                      End Site
                      {
                        OFFSET -0.21631306399999906 -0.08825326400000111 0.018656797720000014
                      }
                    }
                  }
                }
              }
            }
          }
        }
      }
    }
  }
}
MOTION
Frames: 7
Frame Time: 0.03333333333333333
0.1346301259557403 -7.320400810226871 1.0810913154122024 -90.00985698851485 3.798113138818833 -0.00032665536878760426 -179.44583840878693 -61.61212181427307 -159.1592010380574 168.59068981429195 66.8700840719712 172.5849829823503 0 -0.20807499339466143 0 0 0 0 179.46440985621498 -61.61593624763072 159.12251175388815 -168.5646536487838 66.87878816270434 -172.59733166640729 0.0296971891161045 -0.20458196931514494 0.015683962472938583 0 0 0 -0.7795768261510443 8.88473523332912 -1.38445788424326 -0.4545693928824463 22.132521790937048 -0.5091410489201824 0 0 0 -10.89144990696181 -5.308490689246483 -18.94048561963043 -15.347892988690678 2.0034777682730742 -7.6282109359576475 -14.166930999692886 -15.655317279368225 -37.947681958204 -11.240302299404174 -7.071643308221435 40.39266923652873 0 0 0 0 0 0 0 0 0 0 0 0 0 0 0 0 0 0 0 0 0 0 0 0 0 0 0 0 0 0 0 0 0 0 0 0 0 0 0 0 0 0 0 0 0 -9.129302140908367 5.677891000755551 1.9514457291330234 -9.745341666286762 -35.62045364432037 7.862028852086046 0 0 0 0 0 0 0 0 0 11.105228031758621 -6.0903205960951246 15.443065789536286 18.266137007076516 19.225944007318468 47.703828509338976 33.52931860838535 -12.247333982546218 -33.41815422020773 -13.205805684165481 -10.121133131640642 -23.507066345583418 0 0 0 0 0 0 0 0 0 0 0 0 0 0 0 0 0 0 0 0 0 0 0 0 0 0 0 0 0 0 0 0 0 0 0 0 0 0 0 0 0 0 0 0 0
0.1346301259557403 -7.343256290874483 1.0810913154122024 -90.00945305811335 3.5981278790907147 -0.00029783765021350176 -179.44583840878693 -61.61212181427307 -159.1592010380574 168.59068981429195 66.8700840719712 172.5849829823503 0 -0.20807499339466143 0 0 0 0 179.46440985621498 -61.61593624763072 159.12251175388815 -168.56466612548977 66.87877076882613 -172.59734270180277 0.0296971891161045 -0.20458196931514494 0.015683962472938583 0 0 0 -0.779928224604322 9.034775195297554 -1.3865420702142652 -0.4512178793618273 21.070873506132312 -0.5001241299712347 0 0 0 -10.655188186951543 -4.981011906128032 -19.210339184450344 -15.347892988690678 2.0034777682730742 -7.6282109359576475 -14.166930999692886 -15.655317279368225 -37.947681958204 -10.622965040151229 -6.7308552257134675 40.01793003140433 0 0 0 0 0 0 0 0 0 0 0 0 0 0 0 0 0 0 0 0 0 0 0 0 0 0 0 0 0 0 0 0 0 0 0 0 0 0 0 0 0 0 0 0 0 -9.083807615309343 5.656383053149542 1.9433203494808542 -9.808627325134113 -35.81821197679789 7.514525201727371 0 0 0 0 0 0 0 0 0 10.68044146792361 -5.722701342058071 15.32348711150196 18.403165602632026 19.11878376418663 48.07627692130492 33.529310851811026 -12.247333982546218 -33.41815422020773 -13.557704780154518 -9.363435753865032 -23.292905458941778 0 0 0 0 0 0 0 0 0 0 0 0 0 0 0 0 0 0 0 0 0 0 0 0 0 0 0 0 0 0 0 0 0 0 0 0 0 0 0 0 0 0 0 0 0
0.1346301259557403 -7.366111503129822 1.0810913154122024 -90.00900300378662 3.3981450223493304 -0.00026711397263418085 -179.44583840878693 -61.61212181427307 -159.1592010380574 168.59068981429195 66.8700840719712 172.5849829823503 0 -0.20807499339466143 0 0 0 0 179.46440985621498 -61.61593624763072 159.12251175388815 -168.5646626769482 66.87877076882613 -172.59733938269187 0.0296971891161045 -0.20458196931514494 0.015683962472938583 0 0 0 -0.7802852840420036 9.18481798301181 -1.3886282652235438 -0.4480677015036034 20.009584506678973 -0.49123883601575324 0 0 0 -10.420611300691405 -4.652457106990298 -19.4786926975755 -15.347892988690678 2.0034777682730742 -7.6282109359576475 -14.166930999692886 -15.655317279368225 -37.947681958204 -10.008417448829395 -6.386149834700681 39.647223963157664 0 0 0 0 0 0 0 0 0 0 0 0 0 0 0 0 0 0 0 0 0 0 0 0 0 0 0 0 0 0 0 0 0 0 0 0 0 0 0 0 0 0 0 0 0 -9.038311114021864 5.634881481649548 1.9351772738575193 -9.87063005931626 -36.01641771420104 7.166153157869458 0 0 0 0 0 0 0 0 0 10.255195322772234 -5.35601376072349 15.201259982493754 18.539355023804685 19.010789922297544 48.448181935027954 33.52931376494539 -12.247333982546218 -33.41815422020773 -13.905921475813011 -8.604629134203979 -23.083947230636085 0 0 0 0 0 0 0 0 0 0 0 0 0 0 0 0 0 0 0 0 0 0 0 0 0 0 0 0 0 0 0 0 0 0 0 0 0 0 0 0 0 0 0 0 0
0.1346301259557403 -7.388966446992891 1.0810913154122024 -90.00859099050011 3.1981670483502938 -0.00023966141191049295 -179.44583840878693 -61.61212181427307 -159.1592010380574 168.59068981429195 66.8700840719712 172.5849829823503 0 -0.20807499339466143 0 0 0 0 179.46440985621498 -61.61593624763072 159.12251175388815 -168.5646626769482 66.87877076882613 -172.59733938269187 0.0296971891161045 -0.20458196931514494 0.015683962472938583 0 0 0 -0.7806489381990832 9.334856842567715 -1.3907175475005547 -0.44511288901071006 18.94884113792001 -0.4824770282686012 0 0 0 -10.187705562013292 -4.322844024647243 -19.745538179439787 -15.34789463634806 2.003477554699106 -7.6282109359576475 -14.166930999692886 -15.655317279368225 -37.947681958204 -9.396687292587776 -6.037613793859246 39.28059188109958 0 0 0 0 0 0 0 0 0 0 0 0 0 0 0 0 0 0 0 0 0 0 0 0 0 0 0 0 0 0 0 0 0 0 0 0 0 0 0 0 0 0 0 0 0 -8.99281228230539 5.6133858535743055 1.9270174562664169 -9.931339383526945 -36.21507661345746 6.816912509320888 0 0 0 0 0 0 0 0 0 9.829473676215844 -4.990295105350515 15.076395885287226 18.674702504112368 18.901969140357508 48.819561040796074 33.52931860838535 -12.247333982546218 -33.41815422020773 -14.250574131781116 -7.844842626327547 -22.88011798467848 0 0 0 0 0 0 0 0 0 0 0 0 0 0 0 0 0 0 0 0 0 0 0 0 0 0 0 0 0 0 0 0 0 0 0 0 0 0 0 0 0 0 0 0 0
0.1346301259557403 -7.411821927640503 1.0810913154122024 -90.00816298019612 2.998194083550699 -0.00021325336288707377 -179.44583840878693 -61.61212181427307 -159.1592010380574 168.59068981429195 66.8700840719712 172.5849829823503 0 -0.20807499339466143 0 0 0 0 179.46440985621498 -61.61593624763072 159.12251175388815 -168.5646626769482 66.87877076882613 -172.59733938269187 0.0296971891161045 -0.20458196931514494 0.015683962472938583 0 0 0 -0.7810173775973218 9.48489539530204 -1.3928064670157594 -0.442348864625456 17.88882526892515 -0.47383215122592603 0 0 0 -9.95647223699017 -3.9922034148963617 -20.010892210570617 -15.347892988690678 2.0034777682730742 -7.6282109359576475 -14.166930999692886 -15.655317279368225 -37.947681958204 -8.787813933985866 -5.685343489865978 38.918085146523964 0 0 0 0 0 0 0 0 0 0 0 0 0 0 0 0 0 0 0 0 0 0 0 0 0 0 0 0 0 0 0 0 0 0 0 0 0 0 0 0 0 0 0 0 0 -8.947311068036068 5.591896165239716 1.9188412249524498 -9.990740283331629 -36.41416481856761 6.466797188585086 0 0 0 0 0 0 0 0 0 9.403271786602474 -4.625587912228381 14.948898734276991 18.80920536895327 18.792331661458505 49.1903913378481 33.52931376494539 -12.247333982546218 -33.41815422020773 -14.59174684323206 -7.084192078538438 -22.681335432281358 0 0 0 0 0 0 0 0 0 0 0 0 0 0 0 0 0 0 0 0 0 0 0 0 0 0 0 0 0 0 0 0 0 0 0 0 0 0 0 0 0 0 0 0 0
0.1346301259557403 -7.434677139895843 1.0810913154122024 -90.0077590247039 2.7982260405019685 -0.0001900119734837962 -179.44583840878693 -61.61212181427307 -159.1592010380574 168.59068981429195 66.8700840719712 172.5849829823503 0 -0.20807499339466143 0 0 0 0 179.46440985621498 -61.61593624763072 159.12251175388815 -168.5646626769482 66.87877076882613 -172.59733938269187 0.0296971891161045 -0.20458196931514494 0.015683962472938583 0 0 0 -0.7813913529845279 9.634932072401618 -1.394899346619307 -0.43977030373304876 16.829722328176516 -0.46529847989100664 0 0 0 -9.726906722976786 -3.660559786290249 -20.274763873911365 -15.347892988690678 2.003477981847042 -7.628210089222054 -14.166930999692886 -15.655317279368225 -37.947681958204 -8.181822572968663 -5.329425717496409 38.55973924386216 0 0 0 0 0 0 0 0 0 0 0 0 0 0 0 0 0 0 0 0 0 0 0 0 0 0 0 0 0 0 0 0 0 0 0 0 0 0 0 0 0 0 0 0 0 -8.90181027811653 5.570413270791901 1.910647720058809 -10.048815623916989 -36.613675280476954 6.11579788324512 0 0 0 0 0 0 0 0 0 8.976576758160528 -4.261930585045154 14.818781883868473 18.94285414638136 18.681884090843567 49.56066776270069 33.52931376494539 -12.247333982546218 -33.41815422020773 -14.929543824935834 -6.322802084508143 -22.487525892873574 0 0 0 0 0 0 0 0 0 0 0 0 0 0 0 0 0 0 0 0 0 0 0 0 0 0 0 0 0 0 0 0 0 0 0 0 0 0 0 0 0 0 0 0 0
0.1346301259557403 -7.457532083758911 1.0810913154122024 -90.007316996962 2.598264968364669 -0.00016587017289829362 -179.44583840878693 -61.61212181427307 -159.1592010380574 168.59068981429195 66.8700840719712 172.5849829823503 0 -0.20807499339466143 0 0 0 0 179.46440985621498 -61.61593624763072 159.12251175388815 -168.5646626769482 66.87877076882613 -172.59733938269187 0.0296971891161045 -0.20458196931514494 0.015683962472938583 0 0 0 -0.781772091231711 9.784967900909436 -1.3969935520009975 -0.43737217458473615 15.771700673731543 -0.4568695493179743 0 0 0 -9.49899402607732 -3.3279327025466094 -20.537148800293657 -15.34789463634806 2.003477554699106 -7.6282109359576475 -14.166930999692886 -15.655317279368225 -37.947681958204 -7.578736382119611 -4.969954854455705 38.20556897575484 0 0 0 0 0 0 0 0 0 0 0 0 0 0 0 0 0 0 0 0 0 0 0 0 0 0 0 0 0 0 0 0 0 0 0 0 0 0 0 0 0 0 0 0 0 -8.856305312349544 5.548935879774179 1.902438010794206 -10.105550893857567 -36.813609440378094 5.763914017570596 0 0 0 0 0 0 0 0 0 8.549383753403513 -3.89936341139826 14.686063886450683 19.075644001995155 18.570636612698532 49.93038304609064 33.52931860838535 -12.247333982546218 -33.41815422020773 -15.26406654774352 -5.560794991295459 -22.29862033233022 0 0 0 0 0 0 0 0 0 0 0 0 0 0 0 0 0 0 0 0 0 0 0 0 0 0 0 0 0 0 0 0 0 0 0 0 0 0 0 0 0 0 0 0 0
